<svg xmlns="http://www.w3.org/2000/svg" style="display: none;">
  
    <symbol id="is-icon-plane-paper-1" viewBox="0 0 512 512">
      <path d="m512 22c0-1 0-2 0-2c0-1 0-1-1-2c0-1 0-1 0-2c-1 0-1 0-1 0c0-1 0-1 0-1c-1-1-1-1-2-1c0-1 0-1-1-2c0 0 0 0 0 0c-1 0-1 0-1 0c-1-1-2-1-2-1c-1 0-1 0-2 0c0 0-1 0-2 0c0 0-1 0-2 0c0 0 0 0-1 0l-490 203c-4 2-7 6-7 10c0 4 3 8 7 10l185 72l0 163c0 5 3 9 8 11c1 0 2 0 3 0c3 0 7-2 9-5l70-121l129 71c1 1 3 2 5 2c2 0 3-1 4-1c3-2 6-4 6-8l86-394c0-1 0-1 0-1c0 0 0-1 0-1z m-61 32l-251 232l-161-62z m-238 376l0-113l50 27z m196-30l-188-104l263-244z"/>
    </symbol>
  
    <symbol id="is-icon-plane-paper-1-1" viewBox="0 0 512 512">
      <path d="m7 233c-4 2-7 6-7 10c0 5 3 8 7 10l177 69l310-290z m185 110l0 0l0 145c0 5 3 10 8 11c1 0 2 0 3 0c3 0 7-2 9-5l70-120l129 70c1 1 3 2 5 2c2 0 3-1 4-1c4-2 6-4 6-8l85-392z"/>
    </symbol>
  
    <symbol id="is-icon-house-2" viewBox="0 0 512 512">
      <path d="m430 157c2 2 5 3 7 3c2 0 3 0 4-1c4-1 7-5 7-10l0-96c0-6-5-10-11-10l-96 0c-4 0-8 2-10 6c-1 4 0 9 3 12z m-366 112l0 243l149 0l0-149l86 0l0 149l149 0l0-243l-192-192z m447 4c0-1-1-2-2-3c0 0 0 0 0 0l-245-246c-5-4-11-4-16 0l-184 185l-61 61c-1 1-2 2-2 3c-1 2-1 3-1 4c0 2 0 3 1 4c0 2 1 3 2 4c0 0 0 0 0 0c4 4 11 4 15 0c0 0 0 0 0 0l46-46l192-192l238 238c0 0 0 0 0 0c4 4 11 4 15 0c0 0 0 0 0 0c1-1 2-2 2-4c1-1 1-2 1-4c0-1 0-2-1-4z"/>
    </symbol>
  
    <symbol id="is-icon-house-2-1" viewBox="0 0 512 512">
      <path d="m438 288c-6 0-11 5-11 11l0 192l-106 0l0-150l-128 0l0 150l-107 0l0-203c0-6-5-11-11-11c-6 0-10 5-10 11l0 224l149 0l0-149l85 0l0 149l150 0l0-213c0-6-5-11-11-11z m72-18l-246-246c-4-4-11-4-15 0l-245 246c-4 4-4 11 0 15c4 4 11 4 15 0l238-238l237 238c3 2 5 3 8 3c3 0 5-1 8-3c4-4 4-11 0-15z m-168-206l64 0l0 64c0 6 5 11 11 11c6 0 10-5 10-11l0-85l-85 0c-6 0-11 4-11 10c0 6 5 11 11 11z"/>
    </symbol>
  
    <symbol id="is-icon-magnifier" viewBox="0 0 512 512">
      <path d="m192 384c45 0 87-16 120-42l164 164c4 4 9 6 15 6c5 0 11-2 15-6c8-9 8-22 0-30l-164-165c26-33 42-74 42-119c0-106-86-192-192-192c-106 0-192 86-192 192c0 106 86 192 192 192z m0-341c82 0 149 67 149 149c0 82-67 149-149 149c-82 0-149-67-149-149c0-82 67-149 149-149z"/>
    </symbol>
  
    <symbol id="is-icon-magnifier-1" viewBox="0 0 512 512">
      <path d="m509 494l-192-192c0 0 0 0 0 0c28-32 46-74 46-121c0-100-82-181-182-181c-100 0-181 81-181 181c0 100 81 182 181 182c47 0 89-18 121-46c0 0 0 0 0 0l192 192c2 2 5 3 7 3c3 0 6-1 8-3c4-4 4-11 0-15z m-328-153c-88 0-160-71-160-160c0-88 72-160 160-160c89 0 160 72 160 160c0 89-71 160-160 160z"/>
    </symbol>
  
    <symbol id="is-icon-box-handle-1" viewBox="0 0 512 512">
      <path d="m501 257l-85 0c-6 0-11 5-11 11l0 11-21 0 0-224c0-6-5-11-11-11l-298 0c-6 0-11 5-11 11l0 266c-22-3-40 5-61 26-2 3-3 6-3 9 1 4 3 7 6 8 43 22 77 40 105 55 66 35 96 50 131 50 28 0 59-10 115-30 14-5 30-10 48-16l0 16c0 6 5 10 11 10l85 0c6 0 11-4 11-10l0-171c0-6-5-11-11-11z m-330-192l106 0 0 138-46-38c-4-4-10-4-14 0l-46 38z m-22 0l0 160c0 4 3 8 6 10 4 2 9 1 12-1l57-47 57 47c2 1 5 2 7 2 2 0 3 0 5-1 3-2 6-6 6-10l0-160 64 0 0 214-11 0c-38 0-67 21-85 34-5 4-10 8-11 8l-75 0c-13 0-24 11-26 27l-70-22 0-261z m201 354c-117 41-116 41-229-19-25-13-55-29-92-48 17-12 29-12 42-8l88 27c4 9 13 14 22 14l118 0c6 0 10-4 10-10 0-6-4-11-10-11l-118 0c-3 0-5-6-5-11 0-4 2-10 5-10l75 0c7 0 13-5 23-12 17-13 42-31 73-31l53 0 0 100c-20 7-39 14-55 19z m141 9l-64 0 0-149 64 0z"/>
    </symbol>
  
    <symbol id="is-icon-box-handle-1-1" viewBox="0 0 512 512">
      <path d="m501 256l-64 0c-6 0-10 5-10 11l0 170c0 6 4 11 10 11l64 0c6 0 11-5 11-11l0-170c0-6-5-11-11-11z m-128-213l-96 0 0 181-53-52-53 52 0-181-96 0c-6 0-11 4-11 10l0 245c6 0 13 1 19 3l60 19c8-13 22-21 38-21l68 0c1-1 3-3 5-4 19-14 53-39 98-39l32 0 0-203c0-6-5-10-11-10z m32 234l-53 0c-38 0-67 22-85 35-5 3-10 8-11 8l-75 0c-3 0-6 1-9 2 0 0 0 0 0 0-2 1-4 2-6 4-5 4-6 11-6 15 0 10 6 22 21 22l118 0c6 0 10 4 10 10 0 6-4 11-10 11l-118 0c-28 0-42-21-42-43 0 0 0 0 0 0l-61-19c-28-8-50-1-75 24-2 2-3 6-3 9 1 3 3 6 6 8 43 22 77 40 105 54 66 35 96 51 131 51 28 0 59-11 115-30 14-5 30-10 48-17l0-144z"/>
    </symbol>
  
    <symbol id="is-icon-picture-view-all-1" viewBox="0 0 512 512">
      <path d="m437 0l-384 0c-29 0-53 24-53 53l0 384c0 30 24 54 53 54l384 0c30 0 54-24 54-54l0-384c0-29-24-53-54-53z m-266 416c0 6-5 11-11 11l-85 0c-6 0-11-5-11-11l0-85c0-6 5-11 11-11l85 0c6 0 11 5 11 11z m0-128c0 6-5 11-11 11l-85 0c-6 0-11-5-11-11l0-85c0-6 5-11 11-11l85 0c6 0 11 5 11 11z m0-128c0 6-5 11-11 11l-85 0c-6 0-11-5-11-11l0-85c0-6 5-11 11-11l85 0c6 0 11 5 11 11z m128 128c0 6-5 11-11 11l-85 0c-6 0-11-5-11-11l0-85c0-6 5-11 11-11l85 0c6 0 11 5 11 11z m0-128c0 6-5 11-11 11l-85 0c-6 0-11-5-11-11l0-85c0-6 5-11 11-11l85 0c6 0 11 5 11 11z m128 128c0 6-5 11-11 11l-85 0c-6 0-11-5-11-11l0-85c0-6 5-11 11-11l85 0c6 0 11 5 11 11z m0-128c0 6-5 11-11 11l-85 0c-6 0-11-5-11-11l0-85c0-6 5-11 11-11l85 0c6 0 11 5 11 11z"/>
    </symbol>
  
    <symbol id="is-icon-picture-view-all-2" viewBox="0 0 512 512">
      <path d="m437 0l-384 0c-29 0-53 24-53 53l0 384c0 30 24 54 53 54l384 0c30 0 54-24 54-54l0-384c0-29-24-53-54-53z m32 437c0 18-14 32-32 32l-384 0c-17 0-32-14-32-32l0-384c0-17 15-32 32-32l384 0c18 0 32 15 32 32z m-309-373l-85 0c-6 0-11 5-11 11l0 85c0 6 5 11 11 11l85 0c6 0 11-5 11-11l0-85c0-6-5-11-11-11z m-11 85l-64 0 0-64 64 0z m139-85l-85 0c-6 0-11 5-11 11l0 85c0 6 5 11 11 11l85 0c6 0 11-5 11-11l0-85c0-6-5-11-11-11z m-11 85l-64 0 0-64 64 0z m139-85l-85 0c-6 0-11 5-11 11l0 85c0 6 5 11 11 11l85 0c6 0 11-5 11-11l0-85c0-6-5-11-11-11z m-11 85l-64 0 0-64 64 0z m-245 43l-85 0c-6 0-11 5-11 11l0 85c0 6 5 11 11 11l85 0c6 0 11-5 11-11l0-85c0-6-5-11-11-11z m-11 85l-64 0 0-64 64 0z m139-85l-85 0c-6 0-11 5-11 11l0 85c0 6 5 11 11 11l85 0c6 0 11-5 11-11l0-85c0-6-5-11-11-11z m-11 85l-64 0 0-64 64 0z m139-85l-85 0c-6 0-11 5-11 11l0 85c0 6 5 11 11 11l85 0c6 0 11-5 11-11l0-85c0-6-5-11-11-11z m-11 85l-64 0 0-64 64 0z m-245 43l-85 0c-6 0-11 5-11 11l0 85c0 6 5 11 11 11l85 0c6 0 11-5 11-11l0-85c0-6-5-11-11-11z m-11 85l-64 0 0-64 64 0z"/>
    </symbol>
  
    <symbol id="is-icon-preview-2" viewBox="0 0 512 512">
      <path d="m256 341c41 0 75-33 75-74c0-42-34-75-75-75c-41 0-75 33-75 75c0 41 34 74 75 74z m-43-85c6 0 11 5 11 11c0 17 14 32 32 32c18 0 32-15 32-32c0-18-14-32-32-32c-6 0-11-5-11-11c0-6 5-11 11-11c29 0 53 24 53 54c0 29-24 53-53 53c-29 0-53-24-53-53c0-6 4-11 10-11z m-211 17c5 6 115 143 254 143c139 0 249-137 254-143c3-4 3-9 0-13c-5-6-115-143-254-143c-139 0-249 137-254 143c-3 4-3 9 0 13z m254-102c53 0 96 43 96 96c0 53-43 96-96 96c-53 0-96-43-96-96c0-53 43-96 96-96z"/>
    </symbol>
  
    <symbol id="is-icon-preview-2-1" viewBox="0 0 512 512">
      <path d="m510 271c-5-6-115-143-254-143c-139 0-249 137-254 143c-3 4-3 9 0 13c5 6 115 143 254 143c139 0 249-137 254-143c3-4 3-9 0-13z m-254 134c-112 0-208-101-231-128c23-27 119-128 231-128c112 0 208 101 231 128c-23 27-119 128-231 128z m0-224c-53 0-96 43-96 96c0 53 43 96 96 96c53 0 96-43 96-96c0-53-43-96-96-96z m0 171c-41 0-75-33-75-75c0-41 34-74 75-74c41 0 75 33 75 74c0 42-34 75-75 75z m0-128c-6 0-11 5-11 11c0 6 5 10 11 10c18 0 32 15 32 32c0 18-14 32-32 32c-18 0-32-14-32-32c0-6-5-10-11-10c-6 0-10 4-10 10c0 30 24 54 53 54c29 0 53-24 53-54c0-29-24-53-53-53z"/>
    </symbol>
  
    <symbol id="is-icon-diamond" viewBox="0 0 512 512">
      <path d="m333 149l-77-129l-77 129z m-159 21l82 301l82-301z m186 0l-90 329l237-329z m-355 0l237 329l-90-329z m98-158l-98 137l140 0z m291-13l-126 0l81 135z m-150 0l-123 0l42 134z m263 150l-96-134l-44 134z"/>
    </symbol>
  
    <symbol id="is-icon-diamond-1" viewBox="0 0 512 512">
      <path d="m512 160c0 0 0 0 0 0c0 0 0 0 0 0c0-1 0-3-1-4c0 0 0-1 0-1c-1 0-1-1-1-1l-107-150c0 0-1-1-2-2c0 0 0 0 0 0c-1-1-2-1-3-1c0 0 0-1 0-1c0 0 0 0-1 0c0 0-1 0-2 0l-278 0c-1 0-2 0-2 0c-1 0-1 0-1 0c0 0 0 1 0 1c-1 0-2 0-3 1c0 0 0 0 0 0c-1 1-2 2-2 2l-107 150c0 0 0 1-1 1c0 0 0 1 0 1c-1 3-1 5 0 8c0 0 0 0 0 1c1 0 1 1 1 1l245 342c1 0 2 1 2 2c1 0 1 0 1 0c1 1 1 1 2 1c0 0 1 0 1 0c1 1 2 1 3 1c1 0 2 0 3-1c0 0 1 0 1 0c1 0 1 0 2-1c0 0 0 0 1 0c0-1 1-2 2-2l0-1c0 0 0 0 0 0l245-341c0 0 0-1 1-1c0-1 0-1 0-1c1-1 1-3 1-4z m-399-125l33 114l-115 0z m225 136l-82 291l-82-291z m-158-22l76-119l76 119z m96-128l105 0l-33 113z m-112 113l-33-113l105 0z m-12 37l77 275l-198-275z m208 0l121 0l-198 275z m6-22l33-114l82 114z"/>
    </symbol>
  
    <symbol id="is-icon-download-1" viewBox="0 0 512 512">
      <path d="m245 0c-135 0-245 110-245 245c0 136 110 246 245 246c136 0 246-110 246-246c0-135-110-245-246-245z m125 274l-117 118c-1 1-2 1-4 2c-1 0-2 1-4 1c-1 0-2-1-4-1c-1-1-2-1-3-2l-118-118c-4-4-4-11 0-15c5-4 11-4 16 0l99 99l0-251c0-6 4-11 10-11c6 0 11 5 11 11l0 251l99-99c4-4 11-4 15 0c4 4 4 11 0 15z"/>
    </symbol>
  
    <symbol id="is-icon-download-1-1" viewBox="0 0 512 512">
      <path d="m245 0c-135 0-245 110-245 245c0 136 110 246 245 246c136 0 246-110 246-246c0-135-110-245-246-245z m0 469c-123 0-224-100-224-224c0-123 101-224 224-224c124 0 224 101 224 224c0 124-100 224-224 224z m110-210l-99 99l0-251c0-6-5-11-11-11c-6 0-10 5-10 11l0 251l-99-99c-5-4-11-4-16 0c-4 4-4 11 0 15l118 118c1 1 2 1 3 2c2 0 3 1 4 1c2 0 3-1 4-1c2-1 3-1 4-2l117-118c4-4 4-11 0-15c-4-4-11-4-15 0z"/>
    </symbol>
  
    <symbol id="is-icon-picture-1" viewBox="0 0 512 512">
      <path d="m501 0l-490 0c-6 0-11 5-11 11l0 490c0 6 5 11 11 11l490 0c6 0 11-5 11-11l0-490c0-6-5-11-11-11z m-10 21l0 342-15 0-73-145c-7-16-23-26-41-26-17 0-32 9-40 23l-57 97c-16-20-52-56-94-56-53 0-92 81-103 107l-47 0 0-342z m-39 342l-361 0c16-33 47-86 80-86 47 0 86 59 87 60 2 3 5 4 9 4 4 0 7-2 9-5l64-110c5-8 13-13 22-13 9 0 18 6 22 14z m-431 128l0-107 470 0 0 107z m118-299l64 0c35 0 64-29 64-64 0-35-29-64-64-64-28 0-52 17-61 43-24-2-46 18-46 42 0 24 19 43 43 43z m0-64c2 0 5 0 7 2 3 1 7 0 10-1 2-2 4-5 5-8 3-21 21-36 42-36 23 0 42 19 42 43 0 24-19 43-42 43l-64 0c-12 0-22-10-22-22 0-11 10-21 22-21z"/>
    </symbol>
  
    <symbol id="is-icon-picture-1-1" viewBox="0 0 512 512">
      <path d="m75 384l-75 0 0 128 512 0 0-128z m-75-384l0 363 68 0c11-26 50-107 103-107 42 0 78 36 94 56l57-97c8-14 23-23 40-23 18 0 34 10 41 26l73 145 36 0 0-363z m203 192l-64 0c-24 0-43-19-43-43 0-24 22-44 46-42 9-26 33-43 61-43 35 0 64 29 64 64 0 35-29 64-64 64z"/>
    </symbol>
  
    <symbol id="is-icon-setting-gear" viewBox="0 0 512 512">
      <path d="m501 213l-61 0c-4-17-9-35-16-49l43-44c2-2 3-4 3-7c0-3-1-6-3-8l-60-60c-4-4-11-4-15 0l-44 43c-14-7-32-12-49-16l0-61c0-6-5-11-11-11l-64 0c-6 0-11 5-11 11l0 61c-17 4-35 9-49 16l-44-43c-4-4-11-4-15 0l-60 60c-4 4-4 11 0 15l43 44c-7 14-12 32-16 49l-61 0c-6 0-11 5-11 11l0 64c0 6 5 11 11 11l61 0c4 17 9 35 16 49l-43 44c-2 2-3 4-3 7c0 3 1 6 3 8l60 60c4 4 11 4 15 0l44-43c14 7 32 12 49 16l0 61c0 6 5 11 11 11l64 0c6 0 11-5 11-11l0-61c17-4 35-9 49-16l44 43c4 4 11 4 15 0l60-60c4-4 4-11 0-15l-43-44c7-14 12-32 16-49l61 0c6 0 11-5 11-11l0-64c0-6-5-11-11-11z m-245 128c-47 0-85-38-85-85c0-47 38-85 85-85c47 0 85 38 85 85c0 47-38 85-85 85z"/>
    </symbol>
  
    <symbol id="is-icon-setting-gear-1" viewBox="0 0 512 512">
      <path d="m501 213l-61 0c-4-17-9-35-16-49l43-44c2-2 3-4 3-7c0-3-1-6-3-8l-60-60c-4-4-11-4-15 0l-44 43c-14-7-32-12-49-16l0-61c0-6-5-11-11-11l-64 0c-6 0-11 5-11 11l0 61c-17 4-35 9-49 16l-44-43c-4-4-11-4-15 0l-60 60c-4 4-4 11 0 15l43 44c-7 14-12 32-16 49l-61 0c-6 0-11 5-11 11l0 64c0 6 5 11 11 11l61 0c4 17 9 35 16 49l-43 44c-2 2-3 4-3 7c0 3 1 6 3 8l60 60c4 4 11 4 15 0l44-43c14 7 32 12 49 16l0 61c0 6 5 11 11 11l64 0c6 0 11-5 11-11l0-61c17-4 35-9 49-16l44 43c4 4 11 4 15 0l60-60c4-4 4-11 0-15l-43-44c7-14 12-32 16-49l61 0c6 0 11-5 11-11l0-64c0-6-5-11-11-11z m-10 64l-59 0c-5 0-9 4-10 8c-3 12-11 44-20 60c-3 4-2 9 1 13l42 41l-46 46l-41-42c-4-3-9-4-13-1c-16 9-48 17-60 20c-4 1-8 5-8 10l0 59l-42 0l0-59c0-5-4-9-8-10c-12-3-44-11-60-20c-4-3-9-2-13 1l-41 42l-46-46l42-41c3-4 4-9 1-13c-9-16-17-48-20-60c-1-4-5-8-10-8l-59 0l0-42l59 0c5 0 9-4 10-8c3-12 11-44 20-60c3-4 2-9-1-13l-42-41l46-46l41 42c4 3 9 4 13 1c16-9 48-17 59-20c5-1 9-5 9-10l0-59l42 0l0 59c0 5 4 9 8 10c19 5 46 12 60 20c4 3 9 2 13-1l41-42l46 46l-42 41c-3 4-4 9-1 13c9 16 17 48 20 59c1 5 5 9 10 9l59 0z m-235-128c-59 0-107 48-107 107c0 59 48 107 107 107c59 0 107-48 107-107c0-59-48-107-107-107z m0 192c-47 0-85-38-85-85c0-47 38-85 85-85c47 0 85 38 85 85c0 47-38 85-85 85z"/>
    </symbol>
  
    <symbol id="is-icon-log-out-1" viewBox="0 0 512 512">
      <path d="m288 385c0 0 0 0 0 0c-6 0-10 4-10 10l-1 75l-256-1l0-426l257 0l0 75c0 6 5 11 11 11c0 0 0 0 0 0c6 0 10-5 10-11l1-85c0-6-5-11-11-11l-278-1c0 0 0 0 0 0c-3 0-6 1-8 3c-2 2-3 5-3 8l0 448c0 6 5 11 11 11l277 0l0 0c6 0 11-5 11-10l0-86c0-6-5-10-11-10z m223-122c-1-2-2-4-4-5l-104-105c-4-4-11-4-15 0c-4 4-4 11 0 15l87 88l-357 0c-6 0-11 5-11 11c0 6 5 11 11 11l359-1l-90 90c-4 4-4 10 0 15c2 2 5 3 8 3c3 0 5-1 7-3l107-107c2-2 3-5 3-7c0-2 0-4-1-5z"/>
    </symbol>
  
    <symbol id="is-icon-log-out-1-1" viewBox="0 0 512 512">
      <path d="m277 374c-12 0-21 9-21 21l0 74l-213 0l0-426l213 0l0 75c0 12 9 21 21 21c0 0 0 0 0 0c12 0 22-9 22-21l0-97c0-5-3-11-7-15c-4-4-9-6-15-6l-256 0c-12 0-21 10-21 21l0 470c0 11 9 21 21 21l256 0c12 0 22-10 22-21l0-96c0-12-10-21-22-21z m233-115c-1-4-4-8-8-10l-103-103c-8-9-21-9-30 0c-8 8-8 21 0 30l69 69l-320 1c-12 0-22 9-22 21c0 12 10 21 22 21l0 0l322 0l-71 71c-9 8-9 22 0 30c4 4 9 6 15 6c5 0 11-2 15-6l107-106c6-7 8-16 4-24z"/>
    </symbol>
  
    <symbol id="is-icon-buoy" viewBox="0 0 512 512">
      <path d="m501 192l-19 0c-22-78-84-140-162-162l0-19c0-6-5-11-11-11l-106 0c-6 0-11 5-11 11l0 19c-78 22-140 84-162 162l-19 0c-6 0-11 5-11 11l0 106c0 6 5 11 11 11l19 0c22 78 84 140 162 162l0 19c0 6 5 11 11 11l106 0c6 0 11-5 11-11l0-19c78-22 140-84 162-162l19 0c6 0 11-5 11-11l0-106c0-6-5-11-11-11z m-288-171l86 0l0 126c-14-5-28-8-43-8c-15 0-29 3-43 8z m-66 278l-126 0l0-86l126 0c-5 14-8 28-8 43c0 15 3 29 8 43z m152 192l-86 0l0-126c14 5 28 8 43 8c15 0 29-3 43-8z m-43-139c-53 0-96-43-96-96c0-53 43-96 96-96c53 0 96 43 96 96c0 53-43 96-96 96z m235-53l-126 0c5-14 8-28 8-43c0-15-3-29-8-43l126 0z"/>
    </symbol>
  
    <symbol id="is-icon-buoy-1" viewBox="0 0 512 512">
      <path d="m501 213l-14 0c-18-95-93-170-188-188l0-14c0-6-5-11-11-11l-64 0c-6 0-11 5-11 11l0 14c-95 18-170 93-188 188l-14 0c-6 0-11 5-11 11l0 64c0 6 5 11 11 11l14 0c18 95 93 170 188 188l0 14c0 6 5 11 11 11l64 0c6 0 11-5 11-11l0-14c95-18 170-93 188-188l14 0c6 0 11-5 11-11l0-64c0-6-5-11-11-11z m-36 0l-100 0c-12-30-36-54-66-66l0-100c83 17 149 83 166 166z m-209 139c-53 0-96-43-96-96c0-53 43-96 96-96c53 0 96 43 96 96c0 53-43 96-96 96z m21-331l0 120c-7-2-14-2-21-2c-7 0-14 0-21 2l0-120z m-64 26l0 100c-30 12-54 36-66 66l-100 0c17-83 83-149 166-166z m-192 188l120 0c-2 7-2 14-2 21c0 7 0 14 2 21l-120 0z m26 64l100 0c12 30 36 54 66 66l0 100c-83-17-149-83-166-166z m188 192l0-120c7 2 14 2 21 2c7 0 14 0 21-2l0 120z m64-26l0-100c30-12 54-36 66-66l100 0c-17 83-83 149-166 166z m192-188l-120 0c2-7 2-14 2-21c0-7 0-14-2-21l120 0z"/>
    </symbol>
  
    <symbol id="is-icon-megaphone-2" viewBox="0 0 512 512">
      <path d="m501 43c-6 0-10 4-10 10l0 14l-470 143l0-7c0-6-4-11-10-11c-6 0-11 5-11 11l0 106c0 6 5 11 11 11c6 0 10-5 10-11l0-7l86 26l0 48c0 47 38 85 85 85c46 0 83-36 85-81l214 65l0 14c0 6 4 10 10 10c6 0 11-4 11-10l0-406c0-6-5-10-11-10z m-245 333c0 35-29 64-64 64c-35 0-64-29-64-64l0-41l128 39z m20-18c-2-4-5-6-9-6c-2 0-4 1-5 1l-139-42c-2-1-4-2-5-2l-97-29l0-48l470-143l0 334z"/>
    </symbol>
  
    <symbol id="is-icon-megaphone-2-1" viewBox="0 0 512 512">
      <path d="m501 43c-6 0-10 4-10 10l0 14l-470 143l0-7c0-6-4-11-10-11c-6 0-11 5-11 11l0 106c0 6 5 11 11 11c6 0 10-5 10-11l0-7l86 26l0 48c0 47 38 85 85 85c46 0 83-36 85-81l214 65l0 14c0 6 4 10 10 10c6 0 11-4 11-10l0-406c0-6-5-10-11-10z m-245 333c0 35-29 64-64 64c-35 0-64-29-64-64l0-41l128 39z"/>
    </symbol>
  
    <symbol id="is-icon-arrow-move-left" viewBox="0 0 512 512">
      <path d="m245 235l-209 0l68-67c4-5 4-11 0-16c-5-4-11-4-16 0l-85 86c-1 1-2 2-2 3c-1 3-1 6 0 8c0 2 1 3 2 4l85 85c3 2 5 3 8 3c3 0 5-1 8-3c4-4 4-11 0-15l-68-67l209 0c6 0 11-5 11-11c0-6-5-10-11-10z m256-235l-149 0c-6 0-11 5-11 11l0 490c0 6 5 11 11 11l149 0c6 0 11-5 11-11l0-490c0-6-5-11-11-11z m-10 491l-128 0l0-470l128 0z"/>
    </symbol>
  
    <symbol id="is-icon-arrow-move-left-1" viewBox="0 0 512 512">
      <path d="m256 213l-183 0l49-49c8-8 8-21 0-30c-8-8-22-8-30 0l-86 86c-1 1-2 2-2 3c-1 0-1 1-1 1c-1 1-1 2-1 3c-1 0-1 1-1 2c0 0 0 1 0 1c-1 3-1 6 0 9c0 0 0 1 0 2c0 0 0 1 1 2c0 1 0 1 1 2c0 0 0 1 1 2c0 1 1 2 2 3l86 85c4 4 9 6 15 6c5 0 11-2 15-6c8-8 8-22 0-30l-49-49l183 0c12 0 21-10 21-21c0-12-9-22-21-22z m245-213l-149 0c-6 0-11 5-11 11l0 490c0 6 5 11 11 11l149 0c6 0 11-5 11-11l0-490c0-6-5-11-11-11z"/>
    </symbol>
  
    <symbol id="is-icon-arrow-68" viewBox="0 0 512 512">
      <path d="m410 240l-281-235c-9-8-22-6-30 3c-7 9-6 22 3 30l261 218l-261 218c-9 8-10 21-3 30c5 5 11 8 17 8c5 0 10-2 13-5l281-235c5-4 8-10 8-16c0-6-3-12-8-16z"/>
    </symbol>
  
    <symbol id="is-icon-arrow-67" viewBox="0 0 512 512">
      <path d="m149 256l261-218c9-8 10-21 3-30c-8-9-21-11-30-3l-281 235c-5 4-8 10-8 16c0 6 3 12 8 16l280 235c4 3 9 5 14 5c6 0 12-3 17-8c7-9 6-22-3-30z"/>
    </symbol>
  
    <symbol id="is-icon-delete-3" viewBox="0 0 512 512">
      <path d="m245 0c-135 0-245 110-245 245c0 65 25 127 72 173c46 47 107 73 173 73c0 0 0 0 0 0c135 0 245-110 246-245c0-135-110-246-246-246z m0 469l0 11l0-11c-60 0-116-23-158-66c-43-42-66-98-66-158c1-123 101-224 225-224c123 1 224 101 223 225c0 123-100 223-224 223z m99-322c-5-4-11-4-16 0l-83 83l-82-83c-5-4-11-4-16 0c-4 4-4 11 0 15l83 83l-83 83c-4 4-4 11 0 15c2 2 5 3 8 3c2 0 5-1 7-3l83-83l83 84c2 2 5 3 8 3c2 0 5-1 7-3c4-5 4-11 0-15l-83-84l84-82c4-5 4-11 0-16z"/>
    </symbol>
  
    <symbol id="is-icon-delete-3-1" viewBox="0 0 512 512">
      <path d="m245 11c-135 0-245 110-245 245c0 65 25 127 72 173c46 47 107 72 173 72c0 0 0 0 0 0c135 0 245-110 246-245c0-135-110-245-246-245z m0 480z m98-152c4 4 4 11 0 15c-2 2-5 3-7 3c-3 0-6-1-8-3l-83-83l-83 83c-2 2-5 3-7 3c-3 0-6-1-8-3c-4-4-4-11 0-15l83-83l-82-83c-5-4-5-11 0-15c4-4 10-4 15 0l82 83l84-83c4-4 10-4 15 0c4 4 4 11 0 15l-84 83z"/>
    </symbol>
  
    <symbol id="is-icon-inbox-4" viewBox="0 0 512 512">
      <path d="m512 351c0 0 0-1-1-2c0 0 0-1 0-2c0 0 0 0 0 0l-75-128c-2-4-6-6-9-6l-64 0c-6 0-11 5-11 11c0 6 5 11 11 11l58 0l62 106l-131 0c-6 0-11 5-11 11l0 21c0 18-14 32-32 32l-96 0c-17 0-32-14-32-32l0-21c0-6-4-11-10-11l-142 0l62-106l48 0c6 0 10-5 10-11c0-6-4-11-10-11l-54 0c-3 0-7 2-9 6l-75 128c0 0 0 0 0 0c0 1 0 2 0 2c-1 1-1 2-1 2c0 1 0 1 0 1l0 149c0 6 5 11 11 11l490 0c6 0 11-5 11-11l0-149c0 0 0 0 0-1z m-21 140l-470 0l0-128l139 0l0 10c0 30 24 54 53 54l96 0c30 0 54-24 54-54l0-10l128 0z m-253-238c1 1 2 2 3 2c2 1 3 1 4 1c2 0 3 0 4-1c2 0 3-1 4-2l85-85c4-5 4-11 0-16c-4-4-11-4-15 0l-67 68l0-209c0-6-5-11-11-11c-6 0-10 5-10 11l0 209l-67-68c-5-4-11-4-16 0c-4 5-4 11 0 16z"/>
    </symbol>
  
    <symbol id="is-icon-inbox-4-1" viewBox="0 0 512 512">
      <path d="m512 351c0 0 0-1-1-2c0 0 0-1 0-2c0 0 0 0 0 0l-75-128c-2-4-6-6-9-6l-64 0c-6 0-11 5-11 11c0 6 5 11 11 11l58 0l62 106l-131 0c-6 0-11 5-11 11l0 21c0 18-14 32-32 32l-96 0c-17 0-32-14-32-32l0-21c0-6-4-11-10-11l-142 0l62-106l48 0c6 0 10-5 10-11c0-6-4-11-10-11l-54 0c-3 0-7 2-9 6l-75 128c0 0 0 0 0 0c0 1 0 2 0 2c-1 1-1 2-1 2c0 1 0 1 0 1l0 149c0 6 5 11 11 11l490 0c6 0 11-5 11-11l0-149c0 0 0 0 0-1z m-274-98c1 1 2 2 3 2c2 1 3 1 4 1c2 0 3 0 4-1c2 0 3-1 4-2l85-85c4-5 4-11 0-16c-4-4-11-4-15 0l-67 68l0-209c0-6-5-11-11-11c-6 0-10 5-10 11l0 209l-67-68c-5-4-11-4-16 0c-4 5-4 11 0 16z"/>
    </symbol>
  
    <symbol id="is-icon-rocket" viewBox="0 0 512 512">
      <path d="m488 24c-3-2-6-3-10-3c-9 2-94 17-119 41c-7 8-71 72-132 133c-32 0-78 0-98 7c-17 6-38 23-49 34l-75 75c-3 3-4 8-2 12c2 4 5 6 9 6c1 0 1 0 2 0l94-11c-1 3 0 6 3 8l75 76c2 2 5 3 7 3c1 0 1 0 1 0l-11 93c-1 5 2 9 6 11c1 1 3 1 4 1c3 0 6-1 8-3l75-75c10-10 27-32 33-50c5-15 8-48 8-97l133-132c24-25 39-110 41-119c0-4-1-7-3-10z m-393 227c11-11 29-25 41-29c11-3 34-5 70-6c-24 24-47 47-64 64c0 0-1 0-1 1c-1 0-1 1-2 2c-4 4-7 7-11 11l-86 10z m38 68c4-4 9-9 15-15l60 60l-15 15z m156 57c-4 11-18 31-28 41l-53 53l10-85l13-14c0 0 0 0 0 0c0 0 0 0 0 0l65-64c-1 44-5 62-7 69z m146-238l-211 211l-61-60c67-67 200-200 211-212c13-12 59-25 93-32c-7 34-20 80-32 93z m-294 248c-5 5-5 11 0 16c14 14-4 34-8 37c-12 12-61 28-98 38c10-37 26-86 38-98c3-4 23-22 37-8c5 5 11 5 15 0c5-4 5-11 0-15c-18-18-45-15-67 8c-23 22-46 115-48 126c-1 3 0 7 2 10c2 2 5 3 8 3c1 0 2 0 2 0c11-3 104-26 126-49c23-22 26-49 8-68c-5-4-11-4-15 0z"/>
    </symbol>
  
    <symbol id="is-icon-rocket-1" viewBox="0 0 512 512">
      <path d="m507 5c-3-2-6-3-10-3c-9 2-94 17-119 41c-11 11-144 145-211 212l91 90l211-211c24-25 39-110 41-119c0-4-1-7-3-10z m-264 355l-91-90c-14 14-22 22-22 22c-4 4-4 11 0 15l75 75c2 2 5 4 8 4c2 0 5-2 7-4z m101-53c0-5-3-9-7-10c-4-2-8-1-11 2l-99 99c-2 2-3 4-3 7l-11 93c-1 4 2 9 6 11c1 0 3 1 5 1c2 0 5-1 7-3l75-76c11-10 28-32 33-49c7-20 6-47 5-64c0-5 0-8 0-11z m-226-26l97-97c3-2 5-5 5-9c0 0 0-10-12-10c-9 0-57 0-78 7c-17 6-39 23-49 34l-76 75c-3 3-4 8-2 12c2 4 6 6 10 6c0 0 1 0 1 0l98-15c3 0 5-1 6-3z m27 56c-18-17-46-14-68 8c-23 22-46 115-48 126c-1 3 0 7 3 10c2 2 4 3 7 3c1 0 2 0 3 0c10-3 103-27 125-49c23-22 26-50 8-68z"/>
    </symbol>
  
    <symbol id="is-icon-profile-1" viewBox="0 0 512 512">
      <path d="m256 0c-141 0-256 115-256 256c0 68 26 132 74 180l0 0c49 49 113 76 182 76c69 0 134-27 182-76c48-48 74-112 74-180c0-141-115-256-256-256z m173 414c-23-13-57-25-92-38c-9-3-19-7-28-10l0-39c11-7 30-24 32-63c8-5 14-16 14-29c0-13-5-23-12-28c6-16 15-46 9-71c-8-30-48-40-80-40c-29 0-64 8-76 31c-15-1-23 6-28 11c-13 18-4 51 1 69c-7 5-12 15-12 28c0 13 6 24 14 29c2 39 21 56 32 62l0 40c-9 3-17 6-25 9c-35 13-71 26-94 40c-40-44-63-100-63-159c0-129 106-235 235-235c129 0 235 106 235 235c0 59-22 115-62 158z"/>
    </symbol>
  
    <symbol id="is-icon-profile-1-1" viewBox="0 0 512 512">
      <path d="m256 0c-141 0-256 115-256 256c0 68 26 132 74 180c49 49 113 76 182 76c69 0 134-27 182-76c0 0 0 0 0 0c48-48 74-112 74-180c0-141-115-256-256-256z m0 491c-59 0-114-22-157-61c22-12 54-23 86-35c11-4 22-8 32-12c4-1 7-5 7-10l0-53c0-5-3-9-7-10c-1 0-25-10-25-54c0-6-4-11-10-11c-1 0-3-4-3-10c0-6 2-10 2-11c6 0 11-5 11-11c0-2-1-5-3-11c-3-11-11-41-4-51c1-1 3-3 8-3c3 0 5 1 8 1c5 1 11-2 12-8c3-14 28-24 59-24c31 0 56 10 59 24c5 20-4 47-8 60c-2 6-3 9-3 12c0 6 4 11 10 11c1 1 3 5 3 11c0 6-2 10-2 10c-6 0-11 5-11 11c0 44-24 54-25 54c-4 1-7 5-7 10l0 53c0 5 3 9 7 10c11 5 23 9 34 13c32 12 63 23 84 34c-43 39-98 61-157 61z m173-76c-22-14-55-26-92-39c-9-3-19-7-28-10l0-39c11-7 30-24 32-63c8-5 14-16 14-29c0-13-5-23-12-28c6-16 15-46 9-71c-8-30-48-40-80-40c-29 0-64 8-76 31c-15-1-23 6-28 11c-13 18-4 51 1 69c-7 5-12 15-12 28c0 13 6 24 14 29c2 39 21 56 32 63l0 39c-9 3-17 6-25 9c-35 13-71 26-95 40c-40-44-62-100-62-159c0-129 106-235 235-235c129 0 235 106 235 235c0 59-22 115-62 159z"/>
    </symbol>
  
    <symbol id="is-icon-add-1" viewBox="0 0 512 512">
      <path d="m491 235l-213 0l0-214c0-11-10-21-21-21c0 0 0 0 0 0c-12 0-22 10-22 21l0 214l-214 0c-11 0-21 9-21 21c0 12 10 21 21 21l214 0l0 214c0 11 9 21 21 21l0 0c12 0 21-10 21-21l1-214l213 0c12 0 21-9 21-21c0-12-9-21-21-21z"/>
    </symbol>
  
    <symbol id="is-icon-add-1-1" viewBox="0 0 512 512">
      <path d="m480 235l-224 0l0-224c0-6-4-11-10-11c0 0 0 0 0 0c-6 0-11 5-11 11l0 224l-224 0c-6 0-11 4-11 10c0 6 5 11 11 11l224 0l0 224c0 6 4 11 10 11c6 0 11-5 11-11l0-224l224 0c6 0 11-5 11-11c0-6-5-10-11-10z"/>
    </symbol>
  
    <symbol id="is-icon-bin-2" viewBox="0 0 512 512">
      <path d="m0 75c0 6 5 10 11 10l53 0 0 416c0 6 5 11 11 11l362 0c6 0 11-5 11-11l0-416 53 0c6 0 11-4 11-10 0-6-5-11-11-11l-138 0 0-53c0-6-5-11-11-11l-192 0c-6 0-11 5-11 11l0 53-138 0c-6 0-11 5-11 11z m352 74c6 0 11 5 11 11l0 245c0 6-5 11-11 11-6 0-11-5-11-11l0-245c0-6 5-11 11-11z m-85 11l0 245c0 6-5 11-11 11-6 0-11-5-11-11l0-245c0-6 5-11 11-11 6 0 11 5 11 11z m-96 0l0 245c0 6-5 11-11 11-6 0-11-5-11-11l0-245c0-6 5-11 11-11 6 0 11 5 11 11z m0-139l170 0 0 43-170 0z"/>
    </symbol>
  
    <symbol id="is-icon-bin-2-1" viewBox="0 0 512 512">
      <path d="m491 64l-139 0 0-53c0-6-5-11-11-11l-170 0c-6 0-11 5-11 11l0 53-139 0c-6 0-10 5-10 11 0 6 4 10 10 10l54 0 0 416c0 6 4 11 10 11l342 0c6 0 10-5 10-11l0-416 54 0c6 0 10-4 10-10 0-6-4-11-10-11z m-310-43l150 0 0 43-150 0z m235 470l-320 0 0-406 320 0z m-245-342c-6 0-11 5-11 11l0 245c0 6 5 11 11 11 6 0 10-5 10-11l0-245c0-6-4-11-10-11z m85 0c-6 0-11 5-11 11l0 245c0 6 5 11 11 11 6 0 11-5 11-11l0-245c0-6-5-11-11-11z m75 11l0 245c0 6 4 11 10 11 6 0 11-5 11-11l0-245c0-6-5-11-11-11-6 0-10 5-10 11z"/>
    </symbol>
  
    <symbol id="is-icon-arrow-move-right" viewBox="0 0 512 512">
      <path d="m511 263c0-2-1-3-2-4l-85-85c-5-4-11-4-16 0c-4 4-4 11 0 15l68 67l-209 0c-6 0-11 5-11 11c0 6 5 10 11 10l209 0l-68 67c-4 5-4 11 0 16c3 2 5 3 8 3c3 0 5-1 8-3l85-86c1-1 2-2 2-3c1-3 1-6 0-8z m-351-263l-149 0c-6 0-11 5-11 11l0 490c0 6 5 11 11 11l149 0c6 0 11-5 11-11l0-490c0-6-5-11-11-11z m-11 491l-128 0l0-470l128 0z"/>
    </symbol>
  
    <symbol id="is-icon-arrow-move-right-1" viewBox="0 0 512 512">
      <path d="m512 273c0 0-1-1-1-1c0-1 0-2-1-3c0 0 0-1 0-1c-1-1-1-1-1-2c-1-1-1-1-1-2c-1 0-1 0-1-1l-75-85c-8-9-21-10-30-2c-9 8-10 21-2 30l44 50l-177 0c-12 0-22 10-22 21c0 12 10 22 22 22l177 0l-44 50c-8 8-7 22 2 30c4 3 9 5 14 5c6 0 12-2 16-7l75-86c0 0 0 0 1-1c0 0 0-1 1-1c0-1 0-2 1-2c0-1 0-1 0-2c1-1 1-1 1-2c0-1 0-1 1-2c0-2 0-5 0-8z m-352-273l-149 0c-6 0-11 5-11 11l0 490c0 6 5 11 11 11l149 0c6 0 11-5 11-11l0-490c0-6-5-11-11-11z"/>
    </symbol>
  
</svg>
