<?xml version="1.0" encoding="utf-8"?>
<!-- Generator: Adobe Illustrator 22.0.0, SVG Export Plug-In . SVG Version: 6.00 Build 0)  -->
<svg version="1.1" id="Layer_1" xmlns="http://www.w3.org/2000/svg" xmlns:xlink="http://www.w3.org/1999/xlink" x="0px" y="0px"
	 viewBox="0 0 792 612" style="enable-background:new 0 0 792 612;" xml:space="preserve">
<style type="text/css">
	.st0{fill:#ffffff;}
	.st1{fill:#ffffff;}
	.st2{fill:#ffffff;}
</style>
	<!--<style type="text/css">-->
	<!--.st0{fill:#686868;}-->
	<!--.st1{fill:#969696;}-->
	<!--.st2{fill:#e29d00;}-->
<!--</style>-->
<g>
	<g>
		<g>
			<path class="st0" d="M353.9,293.4c3.5,2.5,5.9,5.9,7.3,10.1v-13.2h8.6v51.9h-8.6v-13.2c-1.4,4.2-3.8,7.6-7.3,10.1
				c-3.5,2.5-7.8,3.8-12.8,3.8c-4.6,0-8.7-1.1-12.3-3.2c-3.6-2.1-6.4-5.2-8.5-9.2c-2-4-3.1-8.7-3.1-14.1c0-5.4,1-10.1,3.1-14.2
				c2-4,4.9-7.1,8.5-9.3c3.6-2.1,7.7-3.2,12.3-3.2C346.1,289.6,350.4,290.9,353.9,293.4z M330.8,302.3c-3.2,3.4-4.8,8-4.8,13.9
				c0,5.9,1.6,10.6,4.8,13.9c3.2,3.4,7.4,5.1,12.7,5.1c3.4,0,6.4-0.8,9.1-2.4c2.7-1.6,4.8-3.8,6.3-6.7c1.5-2.9,2.3-6.2,2.3-10
				s-0.8-7.1-2.3-10c-1.5-2.9-3.6-5.1-6.3-6.7c-2.7-1.5-5.7-2.3-9.1-2.3C338.2,297.3,334,298.9,330.8,302.3z"/>
			<path class="st0" d="M414.8,294.2c3.6,3.1,5.7,7.2,6.5,12.3H413c-0.4-3.1-1.7-5.6-3.8-7.6c-2.2-2-5.1-3-8.7-3
				c-3.1,0-5.5,0.7-7.2,2.2c-1.7,1.5-2.6,3.5-2.6,6c0,1.9,0.6,3.4,1.7,4.6c1.2,1.2,2.6,2,4.3,2.6c1.7,0.6,4.1,1.2,7.1,1.9
				c3.8,0.9,6.9,1.8,9.3,2.7c2.4,0.9,4.4,2.4,6,4.4c1.7,2,2.5,4.7,2.5,8.1c0,4.2-1.6,7.7-4.8,10.3c-3.2,2.6-7.4,4-12.7,4
				c-6.2,0-11.2-1.5-15.1-4.4c-3.9-3-6.2-7.1-6.9-12.4h8.3c0.3,3.2,1.7,5.7,4.1,7.7c2.4,2,5.6,2.9,9.6,2.9c3,0,5.3-0.8,6.9-2.3
				c1.7-1.5,2.5-3.5,2.5-6c0-2-0.6-3.6-1.8-4.8c-1.2-1.2-2.7-2.1-4.4-2.7c-1.8-0.6-4.2-1.3-7.3-2c-3.8-0.9-6.9-1.8-9.2-2.6
				c-2.3-0.9-4.3-2.3-5.9-4.2c-1.6-1.9-2.4-4.5-2.4-7.8c0-4.3,1.6-7.9,4.8-10.5c3.2-2.7,7.6-4,13.1-4
				C406.5,289.6,411.2,291.1,414.8,294.2z"/>
			<path class="st0" d="M458.9,334.6v7.6h-6.4c-5.3,0-9.2-1.3-11.9-3.8c-2.6-2.5-3.9-6.7-3.9-12.7v-28H429v-7.5h7.7v-12.9h8.7v12.9
				h13.4v7.5h-13.4v28.1c0,3.3,0.6,5.6,1.8,6.8c1.2,1.2,3.4,1.8,6.4,1.8H458.9z"/>
			<path class="st0" d="M517.7,318h-41.5c0.2,5.9,1.9,10.4,5.1,13.3c3.2,3,7.1,4.4,11.7,4.4c4.2,0,7.6-1.1,10.4-3.2
				c2.8-2.1,4.5-4.9,5.1-8.5h9.2c-0.6,3.6-2,6.8-4.2,9.6c-2.2,2.8-5,5-8.5,6.6c-3.5,1.6-7.4,2.4-11.7,2.4c-5,0-9.4-1.1-13.2-3.2
				c-3.8-2.1-6.8-5.2-9-9.2c-2.2-4-3.3-8.7-3.3-14.1c0-5.4,1.1-10.1,3.3-14.2c2.2-4,5.2-7.1,9-9.3c3.8-2.1,8.2-3.2,13.2-3.2
				c5,0,9.4,1.1,13.2,3.2c3.7,2.1,6.6,5,8.6,8.6c2,3.6,3,7.6,3,11.9C518.1,315.1,517.9,316.7,517.7,318z M507.5,304.2
				c-1.4-2.6-3.4-4.5-6-5.8c-2.5-1.3-5.3-1.9-8.2-1.9c-4.7,0-8.7,1.5-11.9,4.4c-3.2,2.9-4.9,7.2-5.2,12.9h33.2
				C509.6,310,508.9,306.8,507.5,304.2z"/>
			<path class="st0" d="M546.3,292.4c3.3-2,7.2-3,11.7-3v9.4h-2.6c-4.9,0-8.8,1.2-11.9,3.7c-3.1,2.5-4.6,6.6-4.6,12.3v27.3h-8.6
				v-51.9h8.6v10.5C540.6,297.2,543,294.4,546.3,292.4z"/>
			<path class="st0" d="M597.8,294.2c3.6,3.1,5.7,7.2,6.5,12.3h-8.2c-0.4-3.1-1.7-5.6-3.8-7.6c-2.2-2-5.1-3-8.7-3
				c-3.1,0-5.5,0.7-7.2,2.2c-1.7,1.5-2.6,3.5-2.6,6c0,1.9,0.6,3.4,1.7,4.6c1.2,1.2,2.6,2,4.3,2.6c1.7,0.6,4.1,1.2,7.1,1.9
				c3.8,0.9,6.9,1.8,9.3,2.7c2.4,0.9,4.4,2.4,6,4.4c1.7,2,2.5,4.7,2.5,8.1c0,4.2-1.6,7.7-4.8,10.3c-3.2,2.6-7.4,4-12.7,4
				c-6.2,0-11.2-1.5-15.1-4.4c-3.9-3-6.2-7.1-6.9-12.4h8.3c0.3,3.2,1.7,5.7,4.1,7.7c2.4,2,5.6,2.9,9.6,2.9c3,0,5.3-0.8,6.9-2.3
				c1.7-1.5,2.5-3.5,2.5-6c0-2-0.6-3.6-1.8-4.8c-1.2-1.2-2.7-2.1-4.4-2.7c-1.8-0.6-4.2-1.3-7.3-2c-3.8-0.9-6.9-1.8-9.2-2.6
				c-2.3-0.9-4.3-2.3-5.9-4.2c-1.6-1.9-2.4-4.5-2.4-7.8c0-4.3,1.6-7.9,4.8-10.5c3.2-2.7,7.6-4,13.1-4
				C589.6,289.6,594.3,291.1,597.8,294.2z"/>
			<path class="st0" d="M654.1,292.8c3.9,2.1,7,5.2,9.3,9.3c2.2,4,3.4,8.8,3.4,14.2c0,5.4-1.1,10.1-3.4,14.1c-2.2,4-5.3,7.1-9.3,9.2
				c-3.9,2.1-8.4,3.2-13.4,3.2c-5,0-9.4-1.1-13.4-3.2c-3.9-2.1-7-5.2-9.3-9.2c-2.3-4-3.4-8.7-3.4-14.1c0-5.4,1.1-10.1,3.4-14.2
				c2.3-4,5.4-7.1,9.3-9.3c3.9-2.1,8.4-3.2,13.4-3.2C645.8,289.6,650.2,290.7,654.1,292.8z M632.2,299.2c-2.6,1.4-4.7,3.5-6.3,6.4
				c-1.6,2.9-2.4,6.4-2.4,10.6c0,4.2,0.8,7.7,2.4,10.5c1.6,2.9,3.7,5,6.3,6.4c2.6,1.4,5.5,2.1,8.5,2.1c3.1,0,5.9-0.7,8.5-2.1
				c2.6-1.4,4.7-3.5,6.3-6.4c1.6-2.9,2.4-6.4,2.4-10.5c0-4.2-0.8-7.8-2.4-10.6c-1.6-2.9-3.7-5-6.3-6.4c-2.6-1.4-5.5-2.1-8.5-2.1
				C637.7,297.2,634.8,297.9,632.2,299.2z"/>
			<path class="st0" d="M692.3,280.3c-1.8,1.6-2.7,4.5-2.7,8.5v1.4h12.3v7.6h-12.3v44.3H681v-44.3h-7.5v-7.6h7.5v-2.1
				c0-12.4,7-18.3,20.9-17.8v7.6C697.3,277.9,694.1,278.7,692.3,280.3z"/>
			<path class="st0" d="M736.9,334.6v7.6h-6.4c-5.3,0-9.2-1.3-11.9-3.8c-2.6-2.5-3.9-6.7-3.9-12.7v-28H707v-7.5h7.7v-12.9h8.7v12.9
				h13.4v7.5h-13.4v28.1c0,3.3,0.6,5.6,1.8,6.8c1.2,1.2,3.4,1.8,6.4,1.8H736.9z"/>
		</g>
	</g>
	<g>
		<g>
			<path class="st1" d="M396.4,386.2c-0.8,1.4-1.9,2.5-3.4,3.3c-1.5,0.8-3.3,1.2-5.4,1.2h-6v-19h6c2.1,0,3.9,0.4,5.4,1.1
				c1.5,0.8,2.6,1.9,3.4,3.3c0.8,1.4,1.2,3.1,1.2,5.1C397.5,383.1,397.1,384.8,396.4,386.2z M393,386.6c1.3-1.3,2-3.1,2-5.4
				s-0.7-4.1-2-5.4c-1.3-1.3-3.2-1.9-5.7-1.9h-3.4v14.7h3.4C389.8,388.5,391.7,387.9,393,386.6z"/>
			<path class="st1" d="M418.4,383.8h-11.8c0.1,1.7,0.5,3,1.4,3.8s2,1.3,3.3,1.3c1.2,0,2.2-0.3,3-0.9c0.8-0.6,1.3-1.4,1.5-2.4h2.6
				c-0.2,1-0.6,1.9-1.2,2.8c-0.6,0.8-1.4,1.4-2.4,1.9c-1,0.5-2.1,0.7-3.3,0.7c-1.4,0-2.7-0.3-3.8-0.9c-1.1-0.6-2-1.5-2.6-2.6
				c-0.6-1.1-0.9-2.5-0.9-4c0-1.5,0.3-2.9,0.9-4c0.6-1.2,1.5-2,2.6-2.6c1.1-0.6,2.4-0.9,3.8-0.9c1.4,0,2.7,0.3,3.8,0.9
				c1.1,0.6,1.9,1.4,2.5,2.5c0.6,1,0.9,2.2,0.9,3.4C418.5,383,418.5,383.5,418.4,383.8z M415.5,379.9c-0.4-0.7-1-1.3-1.7-1.6
				c-0.7-0.4-1.5-0.5-2.3-0.5c-1.3,0-2.5,0.4-3.4,1.3c-0.9,0.8-1.4,2.1-1.5,3.7h9.5C416.1,381.6,415.9,380.6,415.5,379.9z"/>
			<path class="st1" d="M428.2,370.8v20h-2.5v-20H428.2z"/>
			<path class="st1" d="M436.2,370.5c0.3-0.3,0.7-0.4,1.2-0.4c0.5,0,0.9,0.1,1.2,0.4c0.3,0.3,0.5,0.6,0.5,1.1c0,0.4-0.2,0.8-0.5,1.1
				c-0.3,0.3-0.7,0.4-1.2,0.4c-0.5,0-0.9-0.1-1.2-0.4c-0.3-0.3-0.5-0.6-0.5-1.1C435.8,371.1,435.9,370.8,436.2,370.5z M438.7,375.9
				v14.8h-2.5v-14.8H438.7z"/>
			<path class="st1" d="M452.4,388.1l4.6-12.2h2.6l-5.8,14.8h-2.9l-5.8-14.8h2.6L452.4,388.1z"/>
			<path class="st1" d="M479.6,383.8h-11.8c0.1,1.7,0.5,3,1.4,3.8s2,1.3,3.3,1.3c1.2,0,2.2-0.3,3-0.9c0.8-0.6,1.3-1.4,1.5-2.4h2.6
				c-0.2,1-0.6,1.9-1.2,2.8c-0.6,0.8-1.4,1.4-2.4,1.9c-1,0.5-2.1,0.7-3.3,0.7c-1.4,0-2.7-0.3-3.8-0.9c-1.1-0.6-2-1.5-2.6-2.6
				c-0.6-1.1-0.9-2.5-0.9-4c0-1.5,0.3-2.9,0.9-4c0.6-1.2,1.5-2,2.6-2.6c1.1-0.6,2.4-0.9,3.8-0.9c1.4,0,2.7,0.3,3.8,0.9
				c1.1,0.6,1.9,1.4,2.5,2.5c0.6,1,0.9,2.2,0.9,3.4C479.7,383,479.7,383.5,479.6,383.8z M476.7,379.9c-0.4-0.7-1-1.3-1.7-1.6
				c-0.7-0.4-1.5-0.5-2.3-0.5c-1.3,0-2.5,0.4-3.4,1.3c-0.9,0.8-1.4,2.1-1.5,3.7h9.5C477.3,381.6,477.1,380.6,476.7,379.9z"/>
			<path class="st1" d="M491.6,376.5c0.9-0.6,2.1-0.9,3.3-0.9v2.7h-0.8c-1.4,0-2.5,0.4-3.4,1.1c-0.9,0.7-1.3,1.9-1.3,3.5v7.8H487
				v-14.8h2.5v3C489.9,377.9,490.6,377.1,491.6,376.5z"/>
			<path class="st1" d="M513.1,375.9l4.8,11.7l4.5-11.7h2.7l-8.8,21.8h-2.8l3.1-7.3l-6.2-14.6H513.1z"/>
			<path class="st1" d="M541.9,376.6c1.1,0.6,2,1.5,2.6,2.6s1,2.5,1,4c0,1.5-0.3,2.9-1,4c-0.6,1.1-1.5,2-2.6,2.6
				c-1.1,0.6-2.4,0.9-3.8,0.9c-1.4,0-2.7-0.3-3.8-0.9c-1.1-0.6-2-1.5-2.7-2.6c-0.6-1.1-1-2.5-1-4c0-1.5,0.3-2.9,1-4
				c0.6-1.2,1.5-2,2.7-2.6c1.1-0.6,2.4-0.9,3.8-0.9C539.5,375.7,540.8,376,541.9,376.6z M535.7,378.5c-0.7,0.4-1.3,1-1.8,1.8
				c-0.5,0.8-0.7,1.8-0.7,3c0,1.2,0.2,2.2,0.7,3c0.5,0.8,1.1,1.4,1.8,1.8c0.7,0.4,1.6,0.6,2.4,0.6c0.9,0,1.7-0.2,2.4-0.6
				c0.7-0.4,1.3-1,1.8-1.8c0.5-0.8,0.7-1.8,0.7-3c0-1.2-0.2-2.2-0.7-3c-0.5-0.8-1.1-1.4-1.8-1.8c-0.7-0.4-1.6-0.6-2.4-0.6
				C537.2,377.9,536.4,378.1,535.7,378.5z"/>
			<path class="st1" d="M566,375.9v14.8h-2.5v-3.5c-0.4,1.2-1,2.1-2,2.8c-1,0.6-2.1,1-3.4,1c-1.7,0-3.1-0.6-4.2-1.7
				c-1.1-1.1-1.6-2.7-1.6-4.8v-8.6h2.5v8.4c0,1.5,0.4,2.6,1.1,3.4c0.8,0.8,1.8,1.2,3.1,1.2c1.3,0,2.4-0.4,3.2-1.3
				c0.8-0.9,1.2-2.1,1.2-3.8v-7.9H566z"/>
			<path class="st1" d="M578.6,376.5c0.9-0.6,2.1-0.9,3.3-0.9v2.7h-0.8c-1.4,0-2.5,0.4-3.4,1.1c-0.9,0.7-1.3,1.9-1.3,3.5v7.8H574
				v-14.8h2.5v3C576.9,377.9,577.6,377.1,578.6,376.5z"/>
			<path class="st1" d="M607.8,377c1,0.9,1.6,2,1.8,3.5h-2.3c-0.1-0.9-0.5-1.6-1.1-2.2c-0.6-0.6-1.5-0.9-2.5-0.9
				c-0.9,0-1.6,0.2-2.1,0.6c-0.5,0.4-0.7,1-0.7,1.7c0,0.5,0.2,1,0.5,1.3s0.7,0.6,1.2,0.8c0.5,0.2,1.2,0.4,2,0.6
				c1.1,0.3,2,0.5,2.7,0.8c0.7,0.3,1.3,0.7,1.7,1.3c0.5,0.6,0.7,1.3,0.7,2.3c0,1.2-0.5,2.2-1.4,2.9c-0.9,0.8-2.1,1.1-3.6,1.1
				c-1.8,0-3.2-0.4-4.3-1.3c-1.1-0.8-1.8-2-2-3.5h2.4c0.1,0.9,0.5,1.6,1.2,2.2c0.7,0.6,1.6,0.8,2.7,0.8c0.8,0,1.5-0.2,2-0.6
				c0.5-0.4,0.7-1,0.7-1.7c0-0.6-0.2-1-0.5-1.4c-0.3-0.3-0.8-0.6-1.3-0.8c-0.5-0.2-1.2-0.4-2.1-0.6c-1.1-0.3-2-0.5-2.6-0.8
				s-1.2-0.7-1.7-1.2c-0.5-0.5-0.7-1.3-0.7-2.2c0-1.2,0.5-2.2,1.4-3c0.9-0.8,2.2-1.1,3.8-1.1C605.4,375.7,606.8,376.2,607.8,377z"/>
			<path class="st1" d="M630.3,375.9v14.8h-2.5v-3.5c-0.4,1.2-1,2.1-2,2.8s-2.1,1-3.4,1c-1.7,0-3.1-0.6-4.2-1.7
				c-1.1-1.1-1.6-2.7-1.6-4.8v-8.6h2.5v8.4c0,1.5,0.4,2.6,1.1,3.4c0.8,0.8,1.8,1.2,3.1,1.2c1.3,0,2.4-0.4,3.2-1.3
				c0.8-0.9,1.2-2.1,1.2-3.8v-7.9H630.3z"/>
			<path class="st1" d="M649.5,377.2c1.2,1,2,2.4,2.3,4h-2.6c-0.2-1.1-0.7-1.9-1.5-2.5c-0.8-0.6-1.8-0.9-3-0.9
				c-0.9,0-1.7,0.2-2.4,0.6c-0.7,0.4-1.3,1-1.7,1.8c-0.4,0.8-0.6,1.8-0.6,3c0,1.2,0.2,2.2,0.6,3s1,1.4,1.7,1.8
				c0.7,0.4,1.5,0.6,2.4,0.6c1.2,0,2.2-0.3,3-0.9c0.8-0.6,1.3-1.4,1.5-2.5h2.6c-0.3,1.7-1.1,3.1-2.3,4.1c-1.2,1-2.8,1.5-4.7,1.5
				c-1.4,0-2.7-0.3-3.8-0.9c-1.1-0.6-2-1.5-2.6-2.6c-0.6-1.1-0.9-2.5-0.9-4c0-1.5,0.3-2.9,0.9-4c0.6-1.2,1.5-2,2.6-2.6
				c1.1-0.6,2.4-0.9,3.8-0.9C646.7,375.7,648.3,376.2,649.5,377.2z"/>
			<path class="st1" d="M670.3,377.2c1.2,1,2,2.4,2.3,4H670c-0.2-1.1-0.7-1.9-1.5-2.5c-0.8-0.6-1.8-0.9-3-0.9
				c-0.9,0-1.7,0.2-2.4,0.6c-0.7,0.4-1.3,1-1.7,1.8c-0.4,0.8-0.6,1.8-0.6,3c0,1.2,0.2,2.2,0.6,3s1,1.4,1.7,1.8
				c0.7,0.4,1.5,0.6,2.4,0.6c1.2,0,2.2-0.3,3-0.9c0.8-0.6,1.3-1.4,1.5-2.5h2.6c-0.3,1.7-1.1,3.1-2.3,4.1c-1.2,1-2.8,1.5-4.7,1.5
				c-1.4,0-2.7-0.3-3.8-0.9c-1.1-0.6-2-1.5-2.6-2.6c-0.6-1.1-0.9-2.5-0.9-4c0-1.5,0.3-2.9,0.9-4c0.6-1.2,1.5-2,2.6-2.6
				c1.1-0.6,2.4-0.9,3.8-0.9C667.5,375.7,669.1,376.2,670.3,377.2z"/>
			<path class="st1" d="M693.4,383.8h-11.8c0.1,1.7,0.5,3,1.4,3.8s2,1.3,3.3,1.3c1.2,0,2.2-0.3,3-0.9c0.8-0.6,1.3-1.4,1.5-2.4h2.6
				c-0.2,1-0.6,1.9-1.2,2.8c-0.6,0.8-1.4,1.4-2.4,1.9c-1,0.5-2.1,0.7-3.3,0.7c-1.4,0-2.7-0.3-3.8-0.9c-1.1-0.6-2-1.5-2.6-2.6
				c-0.6-1.1-0.9-2.5-0.9-4c0-1.5,0.3-2.9,0.9-4c0.6-1.2,1.5-2,2.6-2.6c1.1-0.6,2.4-0.9,3.8-0.9c1.4,0,2.7,0.3,3.8,0.9
				c1.1,0.6,1.9,1.4,2.5,2.5c0.6,1,0.9,2.2,0.9,3.4C693.5,383,693.5,383.5,693.4,383.8z M690.5,379.9c-0.4-0.7-1-1.3-1.7-1.6
				c-0.7-0.4-1.5-0.5-2.3-0.5c-1.3,0-2.5,0.4-3.4,1.3c-0.9,0.8-1.4,2.1-1.5,3.7h9.5C691.1,381.6,690.9,380.6,690.5,379.9z"/>
			<path class="st1" d="M709.4,377c1,0.9,1.6,2,1.8,3.5h-2.3c-0.1-0.9-0.5-1.6-1.1-2.2c-0.6-0.6-1.5-0.9-2.5-0.9
				c-0.9,0-1.6,0.2-2.1,0.6c-0.5,0.4-0.7,1-0.7,1.7c0,0.5,0.2,1,0.5,1.3s0.7,0.6,1.2,0.8c0.5,0.2,1.2,0.4,2,0.6
				c1.1,0.3,2,0.5,2.7,0.8c0.7,0.3,1.3,0.7,1.7,1.3c0.5,0.6,0.7,1.3,0.7,2.3c0,1.2-0.5,2.2-1.4,2.9c-0.9,0.8-2.1,1.1-3.6,1.1
				c-1.8,0-3.2-0.4-4.3-1.3c-1.1-0.8-1.8-2-2-3.5h2.4c0.1,0.9,0.5,1.6,1.2,2.2c0.7,0.6,1.6,0.8,2.7,0.8c0.8,0,1.5-0.2,2-0.6
				c0.5-0.4,0.7-1,0.7-1.7c0-0.6-0.2-1-0.5-1.4c-0.3-0.3-0.8-0.6-1.3-0.8c-0.5-0.2-1.2-0.4-2.1-0.6c-1.1-0.3-2-0.5-2.6-0.8
				s-1.2-0.7-1.7-1.2c-0.5-0.5-0.7-1.3-0.7-2.2c0-1.2,0.5-2.2,1.4-3c0.9-0.8,2.2-1.1,3.8-1.1C707.1,375.7,708.4,376.2,709.4,377z"/>
			<path class="st1" d="M727.4,377c1,0.9,1.6,2,1.8,3.5h-2.3c-0.1-0.9-0.5-1.6-1.1-2.2c-0.6-0.6-1.5-0.9-2.5-0.9
				c-0.9,0-1.6,0.2-2.1,0.6c-0.5,0.4-0.7,1-0.7,1.7c0,0.5,0.2,1,0.5,1.3s0.7,0.6,1.2,0.8c0.5,0.2,1.2,0.4,2,0.6
				c1.1,0.3,2,0.5,2.7,0.8c0.7,0.3,1.3,0.7,1.7,1.3c0.5,0.6,0.7,1.3,0.7,2.3c0,1.2-0.5,2.2-1.4,2.9c-0.9,0.8-2.1,1.1-3.6,1.1
				c-1.8,0-3.2-0.4-4.3-1.3c-1.1-0.8-1.8-2-2-3.5h2.4c0.1,0.9,0.5,1.6,1.2,2.2c0.7,0.6,1.6,0.8,2.7,0.8c0.8,0,1.5-0.2,2-0.6
				c0.5-0.4,0.7-1,0.7-1.7c0-0.6-0.2-1-0.5-1.4c-0.3-0.3-0.8-0.6-1.3-0.8c-0.5-0.2-1.2-0.4-2.1-0.6c-1.1-0.3-2-0.5-2.6-0.8
				s-1.2-0.7-1.7-1.2c-0.5-0.5-0.7-1.3-0.7-2.2c0-1.2,0.5-2.2,1.4-3c0.9-0.8,2.2-1.1,3.8-1.1C725.1,375.7,726.4,376.2,727.4,377z"/>
		</g>
	</g>
	<polygon class="st2" points="246.4,254.9 275.9,164.9 305,254.9 535.8,242.2 319.9,233.6 276,94.7 229.7,233.6 60.8,233.6 
		382,424.1 144.6,254.9 	"/>
	<polygon class="st2" points="190.4,402.4 211.6,337.7 192.9,326.4 149.7,459.6 269.6,372.2 249.5,360.3 	"/>
</g>
</svg>
