<svg xmlns="http://www.w3.org/2000/svg" xmlns:xlink="http://www.w3.org/1999/xlink" version="1.1" x="0px" y="0px"
     viewBox="0 0 50 62.5" enable-background="new 0 0 50 50" xml:space="preserve">
    <g fill="rgb(255,255,255, 0.8)"><path d="M22.7747,37.008c-2.2744-0.1297-4.02-1.3566-5.1174-2.5737l-2.7033,7.9005h11.2522v-5.9653   c-1.0075,0.429-2.025,0.6484-3.0425,0.6484C23.0341,37.018,22.9044,37.018,22.7747,37.008z"/><path
        d="M46.1172,33.9056c-1.0475,1.3566-2.9527,2.9627-5.5663,3.1023c-0.1297,0.01-0.2594,0.01-0.3891,0.01   c-1.0174,0-2.035-0.2194-3.0425-0.6484v5.9653H49L46.1172,33.9056z"/><circle
        cx="5.9877" cy="17.955" r="4.9877"/><circle cx="31.6641" cy="18.9525" r="4.9877"/><path
        d="M40.1655,36.0247c0.1111,0,0.2221-0.0029,0.3322-0.0088c2.8036-0.1549,4.6867-2.2834,5.3569-3.5167   c0.527-0.9683,0.1685-2.1792-0.7998-2.7052c-0.9703-0.526-2.1802-0.1685-2.7052,0.7998c-0.0078,0.0136-0.8202,1.3687-2.0711,1.4379   c-1.1504,0.0536-2.594-0.8766-4.1493-2.6049h9.7884V6.4833H18.0364v12.0802l1.3467-0.6384   c0.2095-0.0997,0.429-0.1696,0.6484-0.2094V8.4784h23.891v18.9532h-8.949c-0.8162-0.9116-1.9895-1.4963-3.3095-1.4963   c-1.3199,0-2.4932,0.5847-3.3094,1.4963h-8.3231v-3.1921l-1.9951,0.9377v4.2495h2.8088c-0.1111,0.0062-0.2226,0.0162-0.3346,0.0419   l-6.3564,1.4388l-2.8638-3.7578l10.0112-4.7087c0.9966-0.4686,1.4252-1.657,0.9556-2.6546   c-0.4695-0.9956-1.6551-1.4271-2.6546-0.9556L8.7393,23.9402H5.8942c-2.2899,0-4.1461,1.8563-4.1461,4.1461v14.246h8.4794v-9.9939   l1.5304,2.0078c0.3828,0.5007,0.9722,0.7852,1.5869,0.7852c0.1461,0,0.2942-0.0156,0.4403-0.0497l7.6062-1.7223   c1.0745-0.2426,1.7486-1.3112,1.5051-2.3857c-0.204-0.9034-0.9939-1.5182-1.878-1.547h6.1803   c-1.1063,1.2226-2.1556,2.0471-3.0772,2.404c-0.0599,0.4189-0.2094,0.818-0.4289,1.1771   c-0.4289,0.6783-1.0973,1.1472-1.8754,1.3267l-2.2345,0.4988c0.8679,0.6285,1.9652,1.1172,3.252,1.1871h0.3292   c1.3341,0,2.6846-0.4674,4.0425-1.3473v8.8438h8.9155v-8.8405C37.4793,35.5567,38.8299,36.0247,40.1655,36.0247z"/><polygon
        points="38.8647,15.9599 39.6752,19.4306 40.5688,18.6201 41.795,20.1164 42.7302,19.2019    41.317,17.955 42.1898,17.1445  "/></g>
   </svg>