<?xml version="1.0" standalone="no"?><!DOCTYPE svg PUBLIC "-//W3C//DTD SVG 1.1//EN" "http://www.w3.org/Graphics/SVG/1.1/DTD/svg11.dtd"><svg class="icon" height="512" viewBox="0 0 1024 1024" version="1.1" xmlns="http://www.w3.org/2000/svg"><path d="M536.704 541.888H499.2v107.584h41.664c20.864 0 37.568-4.288 45.952-17.28 12.48-8.576 16.768-21.504 16.768-38.656 4.16-21.504 0.064-51.648-66.88-51.648zM574.336 464.448c12.544-8.576 16.64-21.44 16.64-38.72 0-12.928-4.096-38.656-54.272-38.656H499.2v90.304h33.408c20.864 0 37.504-4.288 41.728-12.928zM194.496 391.36h-41.792v257.984h41.728c41.664 0 75.072-12.928 96-34.368 25.088-25.792 37.568-55.936 37.568-98.944s-12.48-73.024-37.504-94.592c-25.088-21.44-58.496-30.08-96-30.08z" fill="#26953A" /><path d="M901.44 96H122.624C57.728 96 0 151.808 0 222.4v579.456C0 872.32 54.08 928 122.624 928h778.816c64.896 0 122.56-55.68 122.56-126.208V222.4c0-70.592-54.08-126.4-122.56-126.4z m-565.12 557.696c-37.568 38.656-83.456 51.648-141.952 51.648H85.888V326.784h112.768c54.272 0 104.32 17.28 137.664 47.296 37.568 34.432 54.272 77.44 54.272 133.376 0 64.576-20.864 111.872-54.272 146.24z m304.832 17.088c-25.088 21.568-50.112 34.496-87.744 34.496H436.544V326.784h112.768c33.408 0 58.496 8.64 79.36 25.856 20.864 17.216 33.344 43.008 33.344 68.8 0 21.504-8.384 42.944-20.864 55.872l-25.088 25.856c12.544 4.288 25.088 12.864 37.568 25.792 16.704 17.152 25.024 43.008 25.024 64.512-4.16 34.432-12.544 60.224-37.504 77.312z m296.32-25.664v60.16h-233.728v-51.648l104.32-107.584c29.248-30.08 41.728-47.296 54.272-64.448 8.384-17.28 12.48-34.432 12.48-43.008 0-17.216-4.096-30.144-12.48-43.008-8.384-8.64-25.024-12.864-41.728-12.864-29.12 0-54.272 12.864-83.456 38.656l-16.704 17.216V361.216l4.096-4.16c29.248-25.792 62.656-34.496 104.384-34.496 37.632 0 58.432 8.704 79.232 30.208 20.992 21.44 33.472 43.008 33.472 77.376 0 25.792-8.384 47.296-20.928 68.736-12.544 21.632-37.504 47.296-66.816 86.016l-62.528 60.288h146.112z" fill="#26953A" /></svg>