<?xml version="1.0" standalone="no"?>
<!DOCTYPE svg PUBLIC "-//W3C//DTD SVG 20010904//EN"
 "http://www.w3.org/TR/2001/REC-SVG-20010904/DTD/svg10.dtd">
<svg version="1.0" xmlns="http://www.w3.org/2000/svg"
 width="1294.000000pt" height="704.000000pt" viewBox="0 0 1294.000000 704.000000"
 preserveAspectRatio="xMidYMid meet">

<g transform="translate(0.000000,704.000000) scale(0.100000,-0.100000)"
fill="#000000" stroke="none">
<path d="M3639 5543 l-424 -1268 -1542 -5 -1541 -5 2900 -1720 c3280 -1945
2928 -1737 2928 -1732 0 2 -965 692 -2145 1533 l-2145 1529 927 5 926 5 98
295 c54 162 175 530 269 818 95 288 173 522 175 520 2 -2 121 -368 265 -813
144 -446 265 -813 269 -816 3 -4 931 44 2061 107 1130 62 2073 114 2095 114
22 1 36 3 30 6 -10 4 -3762 154 -3857 154 l-54 0 -398 1263 c-219 694 -402
1266 -406 1270 -4 5 -198 -562 -431 -1260z"/>
<path d="M11585 3523 c-82 -11 -138 -35 -178 -76 -48 -48 -65 -95 -74 -198
l-6 -69 -53 0 -54 0 0 -65 0 -65 55 0 55 0 2 -377 3 -378 78 -3 77 -3 0 381 0
380 95 0 95 0 0 65 0 65 -96 0 -97 0 7 68 c11 102 34 128 127 139 l50 6 -3 66
c-3 72 -6 75 -83 64z"/>
<path d="M6890 3290 l0 -110 -55 0 -55 0 0 -65 0 -65 54 0 55 0 3 -302 c3
-273 5 -306 22 -338 49 -92 110 -120 268 -120 l98 0 0 70 0 70 -86 0 c-47 0
-94 4 -104 10 -35 18 -40 65 -40 341 l0 269 115 0 115 0 0 65 0 65 -115 0
-115 0 0 110 0 110 -80 0 -80 0 0 -110z"/>
<path d="M11950 3290 l0 -109 -57 -3 -58 -3 -3 -62 -3 -63 60 0 60 0 3 -307 3
-308 27 -45 c16 -28 43 -55 70 -70 39 -23 53 -25 163 -25 l120 0 0 65 0 65
-93 5 c-140 7 -132 -12 -132 336 l0 284 115 0 116 0 -3 63 -3 62 -112 3 -113
3 0 109 0 110 -80 0 -80 0 0 -110z"/>
<path d="M5079 3190 c-270 -41 -421 -326 -329 -623 87 -283 449 -388 660 -191
l49 46 3 -64 3 -63 80 0 80 0 0 440 0 440 -80 0 -80 0 -3 -64 c-3 -61 -4 -63
-19 -41 -9 12 -42 39 -74 60 -83 53 -188 75 -290 60z m216 -164 c63 -29 124
-97 149 -165 27 -77 19 -217 -17 -287 -27 -53 -75 -101 -130 -131 -45 -25
-199 -25 -244 0 -55 30 -103 78 -131 131 -24 46 -27 61 -27 161 0 95 3 116 24
158 50 102 139 157 256 157 52 0 83 -6 120 -24z"/>
<path d="M6190 3193 c-189 -20 -311 -161 -270 -313 30 -112 88 -148 369 -230
155 -45 189 -153 68 -217 -49 -26 -161 -23 -215 6 -43 22 -82 71 -82 104 0 16
-9 17 -82 15 -82 -3 -83 -3 -80 -28 11 -100 98 -195 210 -231 187 -59 384 -1
454 135 32 61 30 149 -5 208 -42 73 -98 102 -316 168 -149 45 -195 96 -159
175 21 46 73 69 154 69 60 0 77 -4 111 -26 38 -25 73 -79 73 -112 0 -13 13
-16 75 -16 89 0 94 5 71 82 -35 123 -137 197 -286 210 -30 2 -71 3 -90 1z"/>
<path d="M7844 3190 c-168 -25 -294 -126 -344 -279 -80 -242 12 -498 213 -591
169 -80 373 -51 502 71 48 45 105 137 105 168 0 7 -31 11 -83 11 -78 0 -84 -2
-95 -24 -20 -45 -73 -95 -120 -113 -71 -27 -173 -23 -238 10 -78 39 -143 130
-144 199 l0 28 348 2 347 3 -1 100 c-2 154 -48 253 -159 338 -80 60 -221 93
-331 77z m195 -165 c79 -40 131 -113 131 -185 l0 -30 -265 0 c-294 0 -276 -5
-250 69 55 156 233 224 384 146z"/>
<path d="M8975 3193 c-74 -16 -124 -41 -167 -81 l-48 -45 0 57 0 56 -80 0 -80
0 0 -445 0 -445 79 0 79 0 4 293 c3 279 4 294 25 333 42 78 106 114 206 114
l47 0 0 85 c0 92 0 93 -65 78z"/>
<path d="M9510 3189 c-186 -27 -294 -167 -249 -320 28 -92 108 -146 298 -198
62 -18 126 -38 141 -46 92 -47 89 -143 -5 -193 -47 -25 -160 -21 -213 7 -43
22 -82 71 -82 104 0 15 -11 17 -86 17 l-86 0 7 -32 c24 -109 100 -192 212
-229 93 -30 214 -30 298 1 125 47 200 165 175 276 -24 109 -84 153 -295 220
-122 38 -156 53 -182 79 -37 37 -42 69 -18 115 39 75 191 90 277 28 16 -11 35
-40 45 -69 l18 -50 75 3 75 3 -3 35 c-7 103 -92 203 -198 233 -78 22 -137 27
-204 16z"/>
<path d="M10525 3190 c-229 -36 -376 -211 -378 -450 -1 -170 64 -305 188 -390
147 -101 379 -97 528 10 183 131 236 407 119 623 -79 146 -276 235 -457 207z
m185 -161 c58 -26 105 -72 138 -134 24 -45 27 -60 27 -155 0 -127 -23 -189
-92 -250 -108 -95 -285 -94 -384 2 -67 65 -84 114 -84 243 0 92 4 118 22 157
27 59 92 123 146 142 63 22 173 20 227 -5z"/>
<path d="M2456 2218 c-383 -1180 -686 -2121 -684 -2124 6 -5 2193 1596 2191
1604 -1 4 -83 55 -182 114 l-180 107 -518 -371 c-285 -204 -528 -377 -539
-385 -18 -11 12 89 171 574 147 447 191 591 182 599 -13 12 -324 204 -332 204
-2 0 -51 -145 -109 -322z"/>
<path d="M5880 1845 l0 -76 -31 23 c-41 31 -125 32 -166 2 -40 -29 -63 -80
-63 -140 0 -56 24 -102 71 -136 36 -27 107 -27 153 0 35 21 36 21 36 2 0 -16
7 -20 30 -20 l30 0 0 210 0 210 -30 0 -30 0 0 -75z m-39 -101 c10 -9 23 -32
29 -50 36 -108 -83 -193 -161 -115 -24 25 -29 38 -29 78 0 50 17 80 55 102 26
15 82 7 106 -15z"/>
<path d="M6420 1710 l0 -210 30 0 30 0 0 210 0 210 -30 0 -30 0 0 -210z"/>
<path d="M6120 1809 c-58 -23 -92 -79 -92 -149 0 -98 60 -162 151 -162 70 0
141 45 141 89 0 22 -48 14 -74 -12 -35 -35 -97 -35 -131 0 -49 48 -37 55 95
55 l120 0 0 44 c0 103 -111 174 -210 135z m103 -51 c28 -15 46 -38 47 -60 0
-16 -11 -18 -90 -18 -79 0 -90 2 -90 18 1 53 80 89 133 60z"/>
<path d="M6651 1802 c-64 -32 -93 -102 -77 -187 16 -82 107 -137 192 -114 43
12 89 50 97 80 8 30 -50 26 -75 -6 -28 -36 -99 -36 -133 1 -46 49 -37 54 94
54 133 0 137 2 121 76 -21 92 -132 141 -219 96z m118 -47 c28 -14 41 -33 41
-61 0 -11 -19 -14 -90 -14 -103 0 -112 10 -61 61 33 32 67 37 110 14z"/>
<path d="M6930 1808 c1 -7 27 -78 59 -158 58 -144 59 -145 92 -148 l34 -2 58
148 c31 81 57 154 57 161 0 8 -10 11 -27 9 -25 -3 -31 -13 -74 -128 l-47 -125
-14 35 c-8 19 -27 71 -43 115 -34 96 -40 105 -71 105 -13 0 -24 -6 -24 -12z"/>
<path d="M7371 1802 c-64 -32 -93 -102 -77 -187 25 -131 220 -163 281 -45 l16
30 -32 0 c-21 0 -37 -8 -51 -25 -28 -35 -98 -36 -133 0 -49 48 -38 55 96 55
l121 0 -4 55 c-3 40 -11 62 -29 81 -49 53 -126 68 -188 36z m118 -47 c28 -14
41 -33 41 -61 0 -11 -19 -14 -90 -14 -103 0 -112 10 -61 61 33 32 67 37 110
14z"/>
<path d="M7687 1813 c-4 -3 -7 -75 -7 -160 l0 -153 29 0 29 0 4 111 c3 102 5
112 27 130 13 10 34 19 47 19 20 0 24 5 24 31 0 30 -1 31 -32 25 -17 -3 -40
-14 -50 -23 -17 -15 -18 -15 -18 5 0 16 -6 22 -23 22 -13 0 -27 -3 -30 -7z"/>
<path d="M7890 1808 c0 -7 27 -78 60 -157 l59 -144 -29 -70 c-17 -38 -30 -71
-30 -73 0 -2 13 -4 29 -4 27 0 32 6 59 73 83 198 152 371 152 379 0 5 -12 8
-27 6 -25 -3 -32 -13 -75 -123 l-46 -120 -15 35 c-8 19 -27 69 -42 110 -35 91
-41 100 -71 100 -13 0 -24 -6 -24 -12z"/>
<path d="M8410 1812 c0 -5 27 -75 61 -156 l61 -148 -31 -75 -30 -74 31 3 c31
3 33 6 120 218 48 118 88 220 88 228 0 9 -9 12 -26 10 -24 -3 -31 -15 -71
-118 -24 -63 -45 -116 -47 -118 -2 -2 -25 51 -51 117 -45 116 -48 121 -76 121
-16 0 -29 -4 -29 -8z"/>
<path d="M8865 1806 c-106 -47 -129 -204 -40 -274 124 -98 296 16 256 168 -26
97 -125 146 -216 106z m131 -67 c30 -28 39 -77 24 -123 -35 -107 -191 -78
-190 36 1 50 18 85 51 105 32 18 86 9 115 -18z"/>
<path d="M9177 1813 c-13 -12 -7 -203 7 -237 29 -70 115 -98 186 -61 27 14 30
14 30 0 0 -10 10 -15 30 -15 l31 0 -3 158 -3 157 -27 3 -28 3 0 -94 c0 -102
-12 -152 -40 -167 -30 -16 -76 -12 -101 9 -22 18 -24 27 -27 135 -4 113 -4
116 -26 116 -13 0 -26 -3 -29 -7z"/>
<path d="M9567 1813 c-4 -3 -7 -75 -7 -160 l0 -153 29 0 29 0 4 111 c3 102 5
112 27 130 13 10 34 19 47 19 20 0 24 5 24 31 0 30 -1 31 -32 25 -17 -3 -40
-14 -50 -23 -17 -15 -18 -15 -18 5 0 16 -6 22 -23 22 -13 0 -27 -3 -30 -7z"/>
<path d="M10023 1805 c-35 -15 -53 -41 -53 -77 0 -37 26 -65 77 -83 27 -10 60
-22 76 -27 52 -20 28 -68 -35 -68 -29 0 -41 6 -54 26 -21 32 -71 31 -66 -1 13
-79 162 -107 220 -40 45 53 15 114 -68 139 -68 20 -90 34 -90 56 0 43 69 53
104 15 13 -14 34 -25 49 -25 25 0 25 2 15 31 -21 60 -103 86 -175 54z"/>
<path d="M10300 1705 c0 -130 11 -165 60 -190 38 -19 109 -19 138 1 20 14 22
14 22 0 0 -11 10 -16 30 -16 l30 0 0 161 0 160 -27 -3 -28 -3 -5 -112 c-6
-131 -18 -153 -82 -153 -61 0 -72 21 -78 153 l-5 112 -27 3 -28 3 0 -116z"/>
<path d="M10750 1802 c-90 -47 -106 -199 -29 -269 51 -46 153 -49 203 -5 23
21 47 67 39 76 -16 15 -51 4 -71 -24 -19 -25 -29 -30 -66 -30 -58 0 -96 41
-96 103 0 106 97 154 164 82 14 -15 34 -25 50 -25 31 0 32 5 7 46 -37 60 -132
82 -201 46z"/>
<path d="M11122 1803 c-92 -45 -111 -193 -34 -265 51 -48 135 -54 197 -14 27
18 58 70 48 80 -16 15 -51 4 -71 -24 -19 -26 -29 -30 -67 -30 -72 0 -104 46
-92 133 7 48 44 87 82 87 35 0 74 -20 80 -42 5 -13 16 -18 40 -18 29 0 33 3
28 18 -30 81 -128 116 -211 75z"/>
<path d="M11491 1802 c-64 -32 -93 -102 -77 -187 16 -82 107 -137 192 -114 43
12 89 50 97 80 8 30 -50 26 -75 -6 -28 -36 -99 -36 -133 1 -46 49 -37 54 94
54 133 0 137 2 121 76 -21 92 -132 141 -219 96z m118 -47 c28 -14 41 -33 41
-61 0 -11 -19 -14 -90 -14 -103 0 -112 10 -61 61 33 32 67 37 110 14z"/>
<path d="M11851 1808 c-37 -20 -65 -63 -58 -90 11 -42 32 -59 102 -82 61 -20
70 -26 73 -49 3 -21 -2 -28 -21 -32 -43 -11 -81 -2 -92 23 -7 15 -18 22 -37
22 -62 0 -15 -79 59 -99 74 -20 153 23 153 84 0 46 -17 62 -100 93 -78 29 -94
47 -65 76 24 23 62 20 91 -9 14 -14 36 -25 50 -25 22 0 24 3 19 23 -13 42 -50
69 -102 74 -28 2 -58 -2 -72 -9z"/>
<path style="color: blue" d="M12175 1811 c-58 -25 -76 -93 -36 -135 12 -13 49 -31 82 -41 64 -20
83 -38 68 -67 -18 -33 -119 -18 -119 17 0 10 -10 15 -30 15 -21 0 -30 -5 -30
-16 0 -82 157 -119 220 -52 26 28 26 82 1 107 -10 10 -48 28 -84 40 -55 18
-77 35 -77 56 0 2 7 11 16 19 24 25 69 20 92 -9 12 -15 30 -25 46 -25 34 0 34
21 -2 61 -23 26 -37 32 -78 35 -27 2 -58 0 -69 -5z"/>
</g>
</svg>
