<svg xmlns="http://www.w3.org/2000/svg" xmlns:xlink="http://www.w3.org/1999/xlink" version="1.1" x="0px" y="0px"
     viewBox="0 0 1000 1000" enable-background="new 0 0 1000 1000" xml:space="preserve">

<g style="&#10;    fill: #e29d00;&#10;"><path d="M958.2,119.9H41.8c-17.6,0-31.8,14.2-31.8,31.8v637.2c0,17.6,14.2,31.8,31.8,31.8h916.4c17.6,0,31.8-14.2,31.8-31.8V151.7C990,134.1,975.8,119.9,958.2,119.9z M43.4,496.1c-14.1,0-25.5-11.4-25.5-25.5s11.4-25.5,25.5-25.5c14.1,0,25.5,11.4,25.5,25.5S57.4,496.1,43.4,496.1z M970.9,777.6c0,17-13,30.7-29,30.7H106.3c-16,0-29-13.7-29-30.7V162.2c0-17,13-30.7,29-30.7H942c16,0,29,13.7,29,30.7V777.6z M980.7,474.3c-2.3,0-4.2-1.9-4.2-4.2c0-2.3,1.9-4.2,4.2-4.2c2.3,0,4.2,1.9,4.2,4.2C984.9,472.4,983.1,474.3,980.7,474.3z"/>
    <path d="M748.6,178.2H462.4c-17.6,0-31.8,14.2-31.8,31.8v638.4c0,17.6,14.2,31.8,31.8,31.8h286.3c17.6,0,31.8-14.2,31.8-31.8V210C780.4,192.4,766.2,178.2,748.6,178.2z M606.6,189.4c4.3,0,7.8,3.5,7.8,7.8c0,4.3-3.5,7.8-7.8,7.8c-4.3,0-7.8-3.5-7.8-7.8C598.8,192.9,602.3,189.4,606.6,189.4z M605.5,867.8c-13,0-23.5-10.5-23.5-23.5c0-13,10.5-23.5,23.5-23.5c13,0,23.5,10.5,23.5,23.5C629,857.2,618.5,867.8,605.5,867.8z M769.2,781.6c0,14.8-13.3,26.8-29.8,26.8H471.1c-16.5,0-29.8-12-29.8-26.8V244.1c0-14.8,13.3-26.8,29.8-26.8h268.3c16.5,0,29.8,12,29.8,26.8V781.6z"/>
    <path d="M612.6,509.5h-15l-19-40.6l-0.3,0.3v40.4h-9.8v-48.8h15.6l18.5,38.5l0.3-0.3v-38.2h9.8V509.5z"/>
    <path d="M612.4,460.8v21.1l16.4-21.1h12.1l-17.9,21.9l19.5,26.9h-12.9l-17.1-24.8v24.8h-10.5v-48.8H612.4z"/>
    <path d="M605.5,416.3c-38,0-68.8,30.8-68.8,68.8s30.8,68.8,68.8,68.8c38,0,68.8-30.8,68.8-68.8S643.5,416.3,605.5,416.3z M605.5,543.3c-32.1,0-58.2-26-58.2-58.2c0-32.1,26-58.2,58.2-58.2c32.1,0,58.2,26,58.2,58.2C663.7,517.3,637.6,543.3,605.5,543.3z"/></g>
</svg>