<svg version="1.1" xmlns="http://www.w3.org/2000/svg" xmlns:xlink="http://www.w3.org/1999/xlink" x="0px" y="0px"
     viewBox="0 0 1000 1000" enable-background="new 0 0 1000 1000" xml:space="preserve">
<g fill="rgb(255,255,255, 0.8)"><path d="M563.1,276c-11.2-6.6-25.7-2.8-32.3,8.4l-125,213.3c-6.6,11.2-2.8,25.7,8.4,32.3c3.8,2.2,7.9,3.2,11.9,3.2c8.1,0,16-4.2,20.4-11.7l125-213.3C578.1,297,574.3,282.6,563.1,276z"/>
    <path d="M319.6,260.1c-10.2-8.1-25-6.4-33.2,3.7l-98.1,123c-6.8,8.5-6.9,20.6-0.2,29.2l98.1,125.8c4.6,6,11.6,9.1,18.6,9.1c5.1,0,10.2-1.6,14.5-5c10.3-8,12.1-22.8,4.1-33.1l-86.7-111.1l86.5-108.4C331.5,283.1,329.8,268.3,319.6,260.1z"/>
    <path d="M714.4,264.1c-8-10.3-22.8-12.2-33.1-4.1c-10.3,8-12.1,22.8-4.1,33.1l86.6,111.1l-86.5,108.4c-8.1,10.2-6.4,25,3.7,33.2c4.4,3.5,9.5,5.1,14.7,5.1c6.9,0,13.8-3,18.5-8.9l98.1-123c6.8-8.5,6.9-20.6,0.2-29.2L714.4,264.1z"/>
    <path d="M915.2,62.4H84.7C43.5,62.4,10,97.7,10,141v524c0,43.3,33.5,78.5,74.7,78.5h312.1v146.8h-90.1c-13,0-23.6,10.6-23.6,23.6c0,13,10.6,23.6,23.6,23.6h386.6c13,0,23.6-10.6,23.6-23.6c0-13-10.6-23.6-23.6-23.6h-90V743.5h311.9c41.2,0,74.8-35.2,74.8-78.5V141C990,97.7,956.4,62.4,915.2,62.4z M556.1,890.4H444V743.5h112.1V890.4z M941.1,665c0,16.3-11.6,29.6-25.8,29.6H84.7c-14.2,0-25.8-13.3-25.8-29.6V141c0-16.3,11.6-29.6,25.8-29.6h830.5c14.3,0,25.8,13.3,25.8,29.6L941.1,665L941.1,665z"/></g>
</svg>