<?xml version="1.0" standalone="no"?><!DOCTYPE svg PUBLIC "-//W3C//DTD SVG 1.1//EN" "http://www.w3.org/Graphics/SVG/1.1/DTD/svg11.dtd"><svg class="icon" height="512" viewBox="0 0 1024 1024" version="1.1" xmlns="http://www.w3.org/2000/svg"><path d="M755.282 442.962h-42.732l-16.444 98.624h39.452c29.586-3.3 55.894-13.164 59.176-69.04-0.002-19.72-16.43-29.584-39.452-29.584z" fill="#008CDB" /><path d="M512 262.138C246.892 262.138 32 374 32 512c0 137.982 214.892 249.862 480 249.862 265.088 0 480-111.878 480-249.862 0-138-214.912-249.862-480-249.862zM301.588 590.9h-59.176l-13.162 69.038H166.794l52.594-266.306h121.646c52.594 3.3 78.902 29.606 78.902 75.62 0.002 78.918-62.454 124.93-118.348 121.648z m236.716 0l23.008-121.65c3.282-16.424 3.282-26.288-19.724-26.288h-49.312l-29.588 147.938h-62.474l52.614-266.306h62.456l-13.144 69.038h59.176c52.594 3.3 72.316 29.606 65.756 62.476l-23.024 134.792h-65.744z m203.832 0h-59.174l-13.166 69.038h-62.454l52.594-266.306h121.65c52.594 3.3 78.898 29.606 78.898 75.62 0.002 78.918-62.47 124.93-118.348 121.648z" fill="#008CDB" /><path d="M314.732 442.962H272l-16.444 98.624h39.448c29.59-3.3 55.896-13.164 59.178-69.04 0-19.72-16.426-29.584-39.45-29.584z" fill="#008CDB" /></svg>